<svg xmlns="http://www.w3.org/2000/svg" viewBox="0 0 104 32" fill="none">
  <g stroke="#22d3ee" stroke-width="1.1" stroke-linecap="round" stroke-linejoin="round">
    <line x1="16" y1="16" x2="29" y2="16"/>
    <line x1="16" y1="16" x2="25.2" y2="6.8"/>
    <line x1="16" y1="16" x2="16" y2="3"/>
    <line x1="16" y1="16" x2="6.8" y2="6.8"/>
    <line x1="16" y1="16" x2="3" y2="16"/>
    <line x1="16" y1="16" x2="6.8" y2="25.2"/>
    <line x1="16" y1="16" x2="16" y2="29"/>
    <line x1="16" y1="16" x2="25.2" y2="25.2"/>
    <polygon points="29,16 25.2,6.8 16,3 6.8,6.8 3,16 6.8,25.2 16,29 25.2,25.2"/>
    <polygon points="24.7,16 22.15,9.85 16,7.3 9.85,9.85 7.3,16 9.85,22.15 16,24.7 22.15,22.15"/>
    <polygon points="20.3,16 19.04,12.96 16,11.7 12.96,12.96 11.7,16 12.96,19.04 16,20.3 19.04,19.04"/>
    <circle cx="16" cy="16" r="1.3" fill="#22d3ee" stroke="none"/>
  </g>
  <text x="40" y="22" font-family="-apple-system,BlinkMacSystemFont,'Segoe UI',Roboto,Helvetica,Arial,sans-serif" font-size="19" font-weight="700" fill="#22d3ee">Web</text>
</svg>
